<?xml version="1.0" encoding="UTF-8" standalone="no"?>
<!-- Created with Inkscape (http://www.inkscape.org/) -->

<svg
   width="100mm"
   height="100mm"
   viewBox="0 0 100 100"
   version="1.1"
   id="svg5"
   inkscape:version="1.1 (c68e22c387, 2021-05-23)"
   sodipodi:docname="download_info_svg.svg"
   xmlns:inkscape="http://www.inkscape.org/namespaces/inkscape"
   xmlns:sodipodi="http://sodipodi.sourceforge.net/DTD/sodipodi-0.dtd"
   xmlns="http://www.w3.org/2000/svg"
   xmlns:svg="http://www.w3.org/2000/svg">
  <sodipodi:namedview
     id="namedview7"
     pagecolor="#ffffff"
     bordercolor="#666666"
     borderopacity="1.0"
     inkscape:pageshadow="2"
     inkscape:pageopacity="0.0"
     inkscape:pagecheckerboard="0"
     inkscape:document-units="mm"
     showgrid="false"
     width="100mm"
     inkscape:zoom="1.4075477"
     inkscape:cx="268.90741"
     inkscape:cy="147.06429"
     inkscape:window-width="1920"
     inkscape:window-height="986"
     inkscape:window-x="-11"
     inkscape:window-y="-11"
     inkscape:window-maximized="1"
     inkscape:current-layer="layer1" />
  <defs
     id="defs2" />
  <g
     inkscape:label="圖層 1"
     inkscape:groupmode="layer"
     id="layer1">
    <g
       id="g938"
       transform="matrix(0.21387123,0,0,0.23112371,56.765691,20.325052)">
      <g
         id="g883">
	<path
   d="m 170.039,202.929 h -13.076 v -86.353 c 0,-15.301 -12.448,-27.749 -27.749,-27.749 h -23.37 c -15.301,0 -27.749,12.448 -27.749,27.749 0,13.812 10.143,25.298 23.37,27.404 v 58.948 H 88.388 c -15.301,0 -27.749,12.448 -27.749,27.749 0,15.301 12.448,27.749 27.749,27.749 h 81.65 c 15.301,0 27.749,-12.448 27.749,-27.749 0,-15.301 -12.448,-27.748 -27.748,-27.748 z m 0,37.498 h -81.65 c -5.376,0 -9.749,-4.373 -9.749,-9.749 0,-5.376 4.373,-9.749 9.749,-9.749 h 22.076 c 4.971,0 9,-4.029 9,-9 v -76.604 c 0,-4.971 -4.029,-9 -9,-9 h -4.621 c -5.376,0 -9.749,-4.373 -9.749,-9.749 0,-5.376 4.373,-9.749 9.749,-9.749 h 23.37 c 5.376,0 9.749,4.373 9.749,9.749 v 95.353 c 0,4.971 4.029,9 9,9 h 22.076 c 5.376,0 9.749,4.373 9.749,9.749 0,5.376 -4.373,9.749 -9.749,9.749 z"
   id="path879" />

	<path
   d="m 129.213,72.627 c 20.023,0 36.313,-16.29 36.313,-36.313 C 165.526,16.291 149.237,0 129.213,0 109.189,0 92.9,16.29 92.9,36.313 c 0,20.023 16.29,36.314 36.313,36.314 z m 0,-54.627 c 10.098,0 18.313,8.216 18.313,18.313 0,10.097 -8.216,18.313 -18.313,18.313 C 119.116,54.626 110.9,46.411 110.9,36.313 110.9,26.215 119.116,18 129.213,18 Z"
   id="path881" />

</g>
      <g
         id="g885">
</g>
      <g
         id="g887">
</g>
      <g
         id="g889">
</g>
      <g
         id="g891">
</g>
      <g
         id="g893">
</g>
      <g
         id="g895">
</g>
      <g
         id="g897">
</g>
      <g
         id="g899">
</g>
      <g
         id="g901">
</g>
      <g
         id="g903">
</g>
      <g
         id="g905">
</g>
      <g
         id="g907">
</g>
      <g
         id="g909">
</g>
      <g
         id="g911">
</g>
      <g
         id="g913">
</g>
    </g>
    <g
       id="g1665"
       transform="matrix(0.33452252,0,0,0.33420358,0.18405914,0.37203378)">
      <g
         id="g1606">
	<g
   id="XMLID_32_">
		<g
   id="g1603">
			<path
   style="fill:#bdc3c7"
   d="m 269.29,262.49 c 3.75,0 6.8,3.05 6.8,6.8 0,3.75 -3.05,6.79 -6.8,6.79 H 27.72 c -3.75,0 -6.8,-3.04 -6.8,-6.79 0,-3.75 3.05,-6.8 6.8,-6.8 z"
   id="path1595" />

			<path
   style="fill:#2ecc71"
   d="m 189.81,156.54 v 20.87 l -41.31,27.54 -41.31,-27.54 v -20.87 l 18.26,12.16 c 3.2,2.15 7.33,2.35 10.73,0.52 3.4,-1.82 5.53,-5.36 5.53,-9.22 V 27.71 c 0,-3.75 3.04,-6.79 6.79,-6.79 3.75,0 6.8,3.04 6.8,6.79 V 160 c 0,3.86 2.12,7.4 5.52,9.22 3.41,1.83 7.53,1.62 10.74,-0.52 z"
   id="path1597" />

			<path
   d="m 269.29,241.57 c 15.28,0 27.71,12.44 27.71,27.72 0,15.28 -12.43,27.71 -27.71,27.71 H 27.72 C 12.43,297 0,284.57 0,269.29 0,254.01 12.43,241.57 27.72,241.57 Z m 6.8,27.72 c 0,-3.75 -3.05,-6.8 -6.8,-6.8 H 27.72 c -3.75,0 -6.8,3.05 -6.8,6.8 0,3.75 3.05,6.79 6.8,6.79 h 241.57 c 3.75,0 6.8,-3.04 6.8,-6.79 z"
   id="path1599" />

			<path
   d="m 210.73,137 v 46.01 c 0,3.5 -1.75,6.76 -4.66,8.7 l -51.77,34.51 c -1.75,1.17 -3.77,1.76 -5.8,1.76 -2.02,0 -4.04,-0.59 -5.8,-1.76 L 90.94,191.71 c -2.91,-1.94 -4.66,-5.2 -4.66,-8.7 V 137 c 0,-3.86 2.12,-7.4 5.52,-9.22 3.4,-1.83 7.53,-1.63 10.74,0.52 l 18.25,12.16 V 27.71 C 120.79,12.43 133.22,0 148.5,0 c 15.28,0 27.72,12.43 27.72,27.71 v 112.75 l 18.25,-12.16 c 3.21,-2.14 7.33,-2.35 10.73,-0.52 3.4,1.82 5.53,5.36 5.53,9.22 z m -20.92,40.41 v -20.87 l -18.25,12.16 c -3.21,2.14 -7.33,2.35 -10.74,0.52 -3.4,-1.82 -5.52,-5.36 -5.52,-9.22 V 27.71 c 0,-3.75 -3.05,-6.79 -6.8,-6.79 -3.75,0 -6.79,3.04 -6.79,6.79 V 160 c 0,3.86 -2.13,7.4 -5.53,9.22 -3.4,1.83 -7.53,1.63 -10.73,-0.52 l -18.26,-12.16 v 20.87 l 41.31,27.54 z"
   id="path1601" />

		</g>

	</g>

</g>
      <g
         id="g1608">
</g>
      <g
         id="g1610">
</g>
      <g
         id="g1612">
</g>
      <g
         id="g1614">
</g>
      <g
         id="g1616">
</g>
      <g
         id="g1618">
</g>
      <g
         id="g1620">
</g>
      <g
         id="g1622">
</g>
      <g
         id="g1624">
</g>
      <g
         id="g1626">
</g>
      <g
         id="g1628">
</g>
      <g
         id="g1630">
</g>
      <g
         id="g1632">
</g>
      <g
         id="g1634">
</g>
      <g
         id="g1636">
</g>
    </g>
  </g>
</svg>
