<?xml version="1.0" encoding="UTF-8" standalone="no" ?>
<!DOCTYPE svg PUBLIC "-//W3C//DTD SVG 1.1//EN" "http://www.w3.org/Graphics/SVG/1.1/DTD/svg11.dtd">
<svg xmlns="http://www.w3.org/2000/svg" xmlns:xlink="http://www.w3.org/1999/xlink" version="1.1" width="300" height="300" viewBox="0 0 333.33 333.33" xml:space="preserve">
<desc>Created with Fabric.js 3.6.3</desc>
<defs>
</defs>
<g transform="matrix(1.59 0 0 1.59 153.06 180.83)" id="XMLID_27_"  >
<path style="stroke: none; stroke-width: 1; stroke-dasharray: none; stroke-linecap: butt; stroke-dashoffset: 0; stroke-linejoin: miter; stroke-miterlimit: 4; fill: rgb(0,0,0); fill-rule: nonzero; opacity: 1;"  transform=" translate(-95, -95)" d="M 175 0 H 15 C 6.716 0 0 6.716 0 15 v 38.99 c 0 8.284 6.716 15 15 15 c 8.284 0 15 -6.716 15 -15 V 30 h 50 v 130 H 56.836 c -8.284 0 -15 6.716 -15 15 s 6.716 15 15 15 h 76.328 c 8.284 0 15 -6.716 15 -15 s -6.716 -15 -15 -15 H 110 V 30 h 50 v 23.99 c 0 8.284 6.716 15 15 15 c 8.284 0 15 -6.716 15 -15 V 15 C 190 6.716 183.284 0 175 0 z" stroke-linecap="round" />
</g>
<g transform="matrix(7.01 0 0 7.01 262.33 219.72)"  >
<path style="stroke: none; stroke-width: 1; stroke-dasharray: none; stroke-linecap: butt; stroke-dashoffset: 0; stroke-linejoin: miter; stroke-miterlimit: 4; fill: rgb(0,0,0); fill-rule: nonzero; opacity: 1;"  transform=" translate(-12, -12)" d="M 3.51211712 15 L 8.17190229 15 C 8.05949197 14.0523506 8 13.0444554 8 12 C 8 10.9555446 8.05949197 9.94764942 8.17190229 9 L 3.51211712 9 C 3.18046266 9.93833678 3 10.9480937 3 12 C 3 13.0519063 3.18046266 14.0616632 3.51211712 15 L 3.51211712 15 Z M 3.93551965 16 C 5.12590433 18.3953444 7.35207678 20.1851177 10.0280093 20.783292 C 9.24889451 19.7227751 8.65216136 18.0371362 8.31375067 16 L 3.93551965 16 L 3.93551965 16 Z M 20.4878829 15 C 20.8195373 14.0616632 21 13.0519063 21 12 C 21 10.9480937 20.8195373 9.93833678 20.4878829 9 L 15.8280977 9 C 15.940508 9.94764942 16 10.9555446 16 12 C 16 13.0444554 15.940508 14.0523506 15.8280977 15 L 20.4878829 15 L 20.4878829 15 Z M 20.0644804 16 L 15.6862493 16 C 15.3478386 18.0371362 14.7511055 19.7227751 13.9719907 20.783292 C 16.6479232 20.1851177 18.8740957 18.3953444 20.0644804 16 L 20.0644804 16 Z M 9.18440269 15 L 14.8155973 15 C 14.9340177 14.0623882 15 13.0528256 15 12 C 15 10.9471744 14.9340177 9.93761183 14.8155973 9 L 9.18440269 9 C 9.06598229 9.93761183 9 10.9471744 9 12 C 9 13.0528256 9.06598229 14.0623882 9.18440269 15 L 9.18440269 15 Z M 9.3349823 16 C 9.85717082 18.9678295 10.9180729 21 12 21 C 13.0819271 21 14.1428292 18.9678295 14.6650177 16 L 9.3349823 16 L 9.3349823 16 Z M 3.93551965 8 L 8.31375067 8 C 8.65216136 5.96286383 9.24889451 4.27722486 10.0280093 3.21670804 C 7.35207678 3.81488234 5.12590433 5.60465556 3.93551965 8 L 3.93551965 8 Z M 20.0644804 8 C 18.8740957 5.60465556 16.6479232 3.81488234 13.9719907 3.21670804 C 14.7511055 4.27722486 15.3478386 5.96286383 15.6862493 8 L 20.0644804 8 L 20.0644804 8 Z M 9.3349823 8 L 14.6650177 8 C 14.1428292 5.03217048 13.0819271 3 12 3 C 10.9180729 3 9.85717082 5.03217048 9.3349823 8 L 9.3349823 8 Z M 12 22 C 6.4771525 22 2 17.5228475 2 12 C 2 6.4771525 6.4771525 2 12 2 C 17.5228475 2 22 6.4771525 22 12 C 22 17.5228475 17.5228475 22 12 22 Z" stroke-linecap="round" />
</g>
</svg>